<svg xmlns="http://www.w3.org/2000/svg" width="0" height="0">
		<defs>
			<clipPath id="clip_heart" clipPathUnits="objectBoundingBox" transform="scale(0.03 0.03)">
		    <path d="M23.6,0c-3.4,0-6.3,2.7-7.6,5.6C14.7,2.7,11.8,0,8.4,0C3.8,0,0,3.8,0,8.4c0,9.4,9.5,11.9,16,21.2c6.1-9.3,16-12.1,16-21.2C32,3.8,28.2,0,23.6,0z"></path>
			</clipPath>
			<clipPath id="clip_blob" clipPathUnits="objectBoundingBox">
			  <path d="m0.125,0.263 c-0.031,0,0.007,0.055,-0.001,0.083 c0.037,0.056,-0.019,0.109,-0.019,0.166 c0.018,0.06,0.034,0.125,0.021,0.188 c-0.005,0.049,-0.019,0.097,-0.015,0.148 c0.026,0.058,0.003,0.126,-0.012,0.185 c-0.026,0.042,0.022,0.137,0.072,0.094 c0.06,-0.038,0.13,0.001,0.194,0.001 c0.076,0.014,0.154,0.002,0.228,-0.017 c0.068,-0.02,0.135,0.021,0.201,0.012 c0.051,0.009,0.096,-0.009,0.136,-0.032 c0.032,0.015,0.042,0.047,0.085,0.039 c0.031,0.01,0.053,-0.014,0.054,-0.039 c0.046,0.009,-0.023,-0.031,0.003,-0.058 c-0.003,-0.029,-0.081,-0.036,-0.022,-0.072 c0.038,-0.012,0.001,-0.072,0.015,-0.107 c-0.001,-0.049,-0.007,-0.099,0,-0.147 c-0.014,-0.014,-0.026,-0.041,0.005,-0.055 c0.034,-0.028,0.023,-0.06,-0.005,-0.083 c0.009,-0.057,-0.008,-0.116,0,-0.174 c0.008,-0.06,0.016,-0.119,0.008,-0.179 c-0.015,-0.057,-0.094,-0.064,-0.147,-0.071 c-0.054,-0.018,-0.099,0.001,-0.14,0.037 c-0.041,0.008,-0.083,-0.006,-0.124,-0.008 c-0.066,-0.011,-0.133,0.006,-0.197,-0.017 c-0.047,-0.02,-0.097,-0.015,-0.146,-0.009 c-0.073,0.005,-0.068,0.022,-0.142,0.019 c-0.09,-0.055,-0.05,0.028,-0.053,0.095"></path>
		    </clipPath>
		    <clipPath id="clip_blob2" clipPathUnits="objectBoundingBox">
		    <path d="m 21.47634,12.678627 c 5.484392,0.775703 16.450226,2.326692 24.877617,2.911477 8.427392,0.584786 14.316829,0.203947 39.460273,0.287621 25.14344,0.08368 69.54067,0.631673 91.96046,2.071575 22.41979,1.439903 22.86421,3.768602 23.08927,7.999036 0.22506,4.230432 0.23136,10.363007 9.8e-4,13.930532 -0.23039,3.567525 -0.69692,4.571579 -0.92992,8.330456 -0.233,3.758877 -0.233,10.271007 -0.73076,14.557766 -0.49776,4.286759 -1.49274,6.349766 -1.98997,8.936108 -0.49723,2.586342 -0.49723,5.694387 -0.95995,8.931468 -0.46272,3.237082 -1.38767,6.604113 -1.59781,11.835038 -0.21013,5.230925 0.29384,12.324636 0.54572,21.169066 0.25188,8.84445 0.25188,19.4398 0.49509,25.18001 0.24321,5.7402 0.72786,6.62477 0.72583,8.26709 -0.002,1.64231 -0.48856,4.04355 -0.73162,8.99114 -0.24305,4.94758 -0.24305,12.44086 -0.81099,23.68918 -0.56793,11.24834 -1.70362,26.25193 -2.7092,35.60769 -1.00558,9.35576 -1.88078,13.06422 -2.07296,14.91747 -0.19217,1.85326 0.29559,1.85326 0.53814,2.36191 0.24256,0.50867 0.24256,1.52328 0.49462,7.09809 0.25205,5.57482 0.75602,15.70971 1.00794,21.29617 0.25191,5.58647 0.25191,6.62464 -17.09827,10.69865 -17.35018,4.07401 -52.05258,11.18699 -72.69313,14.74369 -20.640549,3.55669 -27.21985,3.55669 -33.492248,4.29567 -6.272398,0.73896 -12.237157,2.21738 -18.318784,2.46656 -6.081626,0.24918 -12.28122,-0.73183 -16.636095,-1.22256 -4.354875,-0.49073 -6.864705,-0.49073 -10.466066,-2.3368 -3.601361,-1.84607 -8.294538,-5.54051 -10.894522,-12.48509 -2.599983,-6.94457 -3.1039523,-17.13984 -3.1042872,-23.01673 -1.083e-4,-1.90063 0.5040939,-11.41036 0.5042022,-9.50972 5.7e-4,-2.07559 -0.5033979,-4.67103 -0.5039694,-6.48886 -5.714e-4,-1.81783 0.5033994,-2.85601 0.7556484,-7.23296 0.252249,-4.37697 0.252249,-12.09436 0.577334,-34.94219 0.325085,-22.84784 0.9753,-60.82607 1.30043,-81.23567 0.325131,-20.409605 0.325131,-23.250629 0.820526,-27.996011 0.495395,-4.745382 1.486522,-11.394653 2.086252,-24.191801 0.599731,-12.797146 0.80776,-31.742614 0.911789,-41.216694 0.104029,-9.47408 0.104039,-9.47408 5.58843,-8.698377"></path>
			</clipPath>
		    <clipPath id="clip_lines" clipPathUnits="objectBoundingBox">
			  <path d="M0,0,-0.023,0.511,0.003,0.96,0.481,0.941,0.977,0.999,0.962,0.506,0.974,0.056,0.611,-0.001,0.286,0.012"></path>
			</clipPath>  
		</defs>
	</svg>